<?xml version="1.0" encoding="utf-8"?>
<svg viewBox="0 0 800 143" xmlns="http://www.w3.org/2000/svg">
  <defs>
    <linearGradient id="a" gradientUnits="userSpaceOnUse" x1="102.79" y1="24.57" x2="102.79" y2="60.56" gradientTransform="matrix(-1.1592, -0.05695, 0, -0.72222, 336.560333, 183.53067)">
      <stop offset="0" stop-color="#0ea5e9"/>
      <stop offset="1" stop-color="#0369a1"/>
    </linearGradient>
  </defs>
  <path d="M 298.07 95.25 C 299.003 95.25 299.81 95.64 300.49 96.42 C 301.163 97.2 301.5 98.11 301.5 99.15 C 301.5 101.437 299.733 103.673 296.2 105.86 C 288.707 110.333 280.8 112.57 272.48 112.57 C 260.94 112.57 251.84 109.083 245.18 102.11 C 238.527 95.143 235.2 85.577 235.2 73.41 C 235.2 65.61 236.683 58.72 239.65 52.74 C 242.61 46.76 246.77 42.133 252.13 38.86 C 257.483 35.58 263.643 33.94 270.61 33.94 C 280.39 33.94 288.113 37.087 293.78 43.38 C 299.447 49.673 302.28 58.33 302.28 69.35 C 302.28 71.223 301.863 72.603 301.03 73.49 C 300.197 74.37 298.847 74.81 296.98 74.81 L 245.03 74.81 C 245.343 84.383 247.84 91.663 252.52 96.65 C 257.2 101.643 263.803 104.14 272.33 104.14 C 276.803 104.14 280.547 103.543 283.56 102.35 C 286.573 101.15 289.797 99.563 293.23 97.59 C 295.517 96.03 297.13 95.25 298.07 95.25 Z M 270.61 41.74 C 263.33 41.74 257.507 44.03 253.14 48.61 C 248.773 53.183 246.173 59.577 245.34 67.79 L 293.54 67.79 C 293.333 59.47 291.253 53.05 287.3 48.53 C 283.353 44.003 277.79 41.74 270.61 41.74 Z M 347.99 33.94 C 357.143 33.94 363.98 36.333 368.5 41.12 C 373.027 45.9 375.29 53.127 375.29 62.8 L 375.29 107.26 C 375.29 108.72 374.873 109.89 374.04 110.77 C 373.207 111.657 372.063 112.1 370.61 112.1 C 369.15 112.1 368.007 111.657 367.18 110.77 C 366.347 109.89 365.93 108.72 365.93 107.26 L 365.93 97.9 C 363.743 102.58 360.57 106.193 356.41 108.74 C 352.25 111.293 347.467 112.57 342.06 112.57 C 337.173 112.57 332.7 111.58 328.64 109.6 C 324.587 107.627 321.39 104.87 319.05 101.33 C 316.71 97.797 315.54 93.897 315.54 89.63 C 315.54 84.017 316.997 79.65 319.91 76.53 C 322.823 73.41 327.66 71.173 334.42 69.82 C 341.18 68.467 350.59 67.79 362.65 67.79 L 365.93 67.79 L 365.93 62.02 C 365.93 55.16 364.527 50.143 361.72 46.97 C 358.907 43.797 354.487 42.21 348.46 42.21 C 340.76 42.21 333.427 44.237 326.46 48.29 C 326.147 48.503 325.34 49.05 324.04 49.93 C 322.74 50.817 321.623 51.26 320.69 51.26 C 319.65 51.26 318.79 50.87 318.11 50.09 C 317.437 49.31 317.1 48.347 317.1 47.2 C 317.1 44.913 318.92 42.677 322.56 40.49 C 326.2 38.41 330.257 36.8 334.73 35.66 C 339.203 34.513 343.623 33.94 347.99 33.94 Z M 342.84 104.3 C 349.6 104.3 355.137 102.01 359.45 97.43 C 363.77 92.857 365.93 87.033 365.93 79.96 L 365.93 74.81 L 362.96 74.81 C 352.98 74.81 345.337 75.227 340.03 76.06 C 334.73 76.893 330.987 78.323 328.8 80.35 C 326.613 82.377 325.52 85.317 325.52 89.17 C 325.52 93.537 327.187 97.15 330.52 100.01 C 333.847 102.87 337.953 104.3 342.84 104.3 Z M 420.53 112.57 C 416.163 112.57 411.873 111.97 407.66 110.77 C 403.447 109.577 399.727 107.94 396.5 105.86 C 394.527 104.507 393.15 103.337 392.37 102.35 C 391.59 101.363 391.2 100.243 391.2 98.99 C 391.2 97.95 391.537 97.067 392.21 96.34 C 392.89 95.613 393.697 95.25 394.63 95.25 C 395.57 95.25 397.183 96.03 399.47 97.59 C 402.483 99.563 405.577 101.177 408.75 102.43 C 411.923 103.677 415.9 104.3 420.68 104.3 C 426.82 104.3 431.607 103.18 435.04 100.94 C 438.467 98.707 440.18 95.51 440.18 91.35 C 440.18 88.857 439.557 86.803 438.31 85.19 C 437.063 83.577 434.983 82.173 432.07 80.98 C 429.157 79.78 424.997 78.61 419.59 77.47 C 410.337 75.39 403.76 72.71 399.86 69.43 C 395.96 66.157 394.01 61.763 394.01 56.25 C 394.01 49.597 396.61 44.213 401.81 40.1 C 407.01 35.993 413.77 33.94 422.09 33.94 C 426.143 33.94 430.017 34.46 433.71 35.5 C 437.403 36.54 440.6 38.05 443.3 40.03 C 446.94 42.523 448.76 44.967 448.76 47.36 C 448.76 48.4 448.423 49.31 447.75 50.09 C 447.077 50.87 446.27 51.26 445.33 51.26 C 444.29 51.26 442.68 50.427 440.5 48.76 C 437.687 46.787 434.903 45.2 432.15 44 C 429.397 42.807 425.887 42.21 421.62 42.21 C 416.213 42.21 411.897 43.433 408.67 45.88 C 405.45 48.32 403.84 51.62 403.84 55.78 C 403.84 58.173 404.383 60.15 405.47 61.71 C 406.563 63.27 408.437 64.647 411.09 65.84 C 413.743 67.04 417.567 68.21 422.56 69.35 C 429.733 71.017 435.243 72.787 439.09 74.66 C 442.937 76.533 445.693 78.77 447.36 81.37 C 449.027 83.97 449.86 87.297 449.86 91.35 C 449.86 97.697 447.18 102.82 441.82 106.72 C 436.467 110.62 429.37 112.57 420.53 112.57 Z M 523.07 37.06 C 523.903 35.187 525.257 34.25 527.13 34.25 C 528.27 34.25 529.31 34.667 530.25 35.5 C 531.183 36.333 531.65 37.323 531.65 38.47 C 531.65 39.197 531.493 39.87 531.18 40.49 L 487.04 137.37 C 486.207 139.137 484.853 140.02 482.98 140.02 C 481.833 140.02 480.82 139.657 479.94 138.93 C 479.053 138.203 478.61 137.267 478.61 136.12 C 478.61 135.5 478.767 134.877 479.08 134.25 L 490.16 110.07 L 458.18 40.49 C 457.867 39.87 457.71 39.247 457.71 38.62 C 457.71 37.373 458.257 36.307 459.35 35.42 C 460.437 34.54 461.607 34.1 462.86 34.1 C 464.833 34.1 466.183 35.037 466.91 36.91 L 494.99 99.93 L 523.07 37.06 Z" style="fill: rgb(132, 134, 136);"/>
  <path d="M 576.96 33.47 C 587.047 33.47 594.56 36.02 599.5 41.12 C 604.44 46.213 606.91 53.96 606.91 64.36 L 606.91 104.77 C 606.91 107.157 606.233 109 604.88 110.3 C 603.527 111.6 601.653 112.25 599.26 112.25 C 596.973 112.25 595.153 111.577 593.8 110.23 C 592.453 108.877 591.78 107.057 591.78 104.77 L 591.78 98.99 C 589.8 103.363 586.86 106.72 582.96 109.06 C 579.06 111.4 574.51 112.57 569.31 112.57 C 564.317 112.57 559.74 111.553 555.58 109.52 C 551.42 107.493 548.17 104.66 545.83 101.02 C 543.49 97.38 542.32 93.323 542.32 88.85 C 542.32 83.343 543.75 79.003 546.61 75.83 C 549.47 72.657 554.203 70.393 560.81 69.04 C 567.417 67.687 576.49 67.01 588.03 67.01 L 591.62 67.01 L 591.62 62.49 C 591.62 56.663 590.423 52.45 588.03 49.85 C 585.637 47.25 581.79 45.95 576.49 45.95 C 572.85 45.95 569.417 46.42 566.19 47.36 C 562.97 48.293 559.433 49.643 555.58 51.41 C 552.773 52.97 550.8 53.75 549.66 53.75 C 548.1 53.75 546.823 53.18 545.83 52.04 C 544.843 50.893 544.35 49.437 544.35 47.67 C 544.35 46.11 544.793 44.733 545.68 43.54 C 546.56 42.34 547.99 41.17 549.97 40.03 C 553.61 38.05 557.873 36.463 562.76 35.27 C 567.647 34.07 572.38 33.47 576.96 33.47 Z M 572.12 100.87 C 577.84 100.87 582.52 98.92 586.16 95.02 C 589.8 91.12 591.62 86.1 591.62 79.96 L 591.62 75.91 L 588.81 75.91 C 580.697 75.91 574.457 76.273 570.09 77 C 565.723 77.727 562.603 78.947 560.73 80.66 C 558.857 82.38 557.92 84.85 557.92 88.07 C 557.92 91.817 559.273 94.887 561.98 97.28 C 564.687 99.673 568.067 100.87 572.12 100.87 Z M 663.85 33.47 C 670.403 33.47 676.253 35.137 681.4 38.47 C 686.547 41.797 690.55 46.477 693.41 52.51 C 696.27 58.537 697.7 65.503 697.7 73.41 C 697.7 81.21 696.297 88.073 693.49 94 C 690.683 99.927 686.703 104.503 681.55 107.73 C 676.403 110.957 670.503 112.57 663.85 112.57 C 658.13 112.57 653.087 111.347 648.72 108.9 C 644.347 106.453 641.017 102.943 638.73 98.37 L 638.73 133.16 C 638.73 135.34 638.03 137.08 636.63 138.38 C 635.223 139.68 633.377 140.33 631.09 140.33 C 628.697 140.33 626.747 139.657 625.24 138.31 C 623.733 136.957 622.98 135.137 622.98 132.85 L 622.98 41.43 C 622.98 39.143 623.707 37.297 625.16 35.89 C 626.613 34.49 628.537 33.79 630.93 33.79 C 633.217 33.79 635.09 34.49 636.55 35.89 C 638.003 37.297 638.73 39.143 638.73 41.43 L 638.73 47.83 C 641.017 43.25 644.347 39.713 648.72 37.22 C 653.087 34.72 658.13 33.47 663.85 33.47 Z M 660.1 100.09 C 666.967 100.09 672.273 97.773 676.02 93.14 C 679.76 88.513 681.63 81.937 681.63 73.41 C 681.63 64.777 679.733 58.07 675.94 53.29 C 672.14 48.503 666.86 46.11 660.1 46.11 C 653.24 46.11 647.963 48.45 644.27 53.13 C 640.577 57.81 638.73 64.467 638.73 73.1 C 638.73 81.733 640.577 88.39 644.27 93.07 C 647.963 97.75 653.24 100.09 660.1 100.09 Z M 754.85 33.47 C 761.403 33.47 767.253 35.137 772.4 38.47 C 777.547 41.797 781.55 46.477 784.41 52.51 C 787.27 58.537 788.7 65.503 788.7 73.41 C 788.7 81.21 787.297 88.073 784.49 94 C 781.683 99.927 777.703 104.503 772.55 107.73 C 767.403 110.957 761.503 112.57 754.85 112.57 C 749.13 112.57 744.087 111.347 739.72 108.9 C 735.347 106.453 732.017 102.943 729.73 98.37 L 729.73 133.16 C 729.73 135.34 729.03 137.08 727.63 138.38 C 726.223 139.68 724.377 140.33 722.09 140.33 C 719.697 140.33 717.747 139.657 716.24 138.31 C 714.733 136.957 713.98 135.137 713.98 132.85 L 713.98 41.43 C 713.98 39.143 714.707 37.297 716.16 35.89 C 717.613 34.49 719.537 33.79 721.93 33.79 C 724.217 33.79 726.09 34.49 727.55 35.89 C 729.003 37.297 729.73 39.143 729.73 41.43 L 729.73 47.83 C 732.017 43.25 735.347 39.713 739.72 37.22 C 744.087 34.72 749.13 33.47 754.85 33.47 Z M 751.1 100.09 C 757.967 100.09 763.273 97.773 767.02 93.14 C 770.76 88.513 772.63 81.937 772.63 73.41 C 772.63 64.777 770.733 58.07 766.94 53.29 C 763.14 48.503 757.86 46.11 751.1 46.11 C 744.24 46.11 738.963 48.45 735.27 53.13 C 731.577 57.81 729.73 64.467 729.73 73.1 C 729.73 81.733 731.577 88.39 735.27 93.07 C 738.963 97.75 744.24 100.09 751.1 100.09 Z" style="fill: rgb(132, 134, 136);"/>
  <g transform="matrix(3.555556058883667, 0, 0, 3.555556058883667, -692.195556640625, -433.2052917480469)">
    <path d="M 238.93 156.931 C 238.93 158.591 237.36 159.931 235.43 159.931 L 200.43 159.931 C 198.5 159.931 196.93 158.591 196.93 156.931 L 196.93 126.931 C 196.93 125.271 198.5 123.931 200.43 123.931 L 235.43 123.931 C 237.36 123.931 238.93 125.271 238.93 126.931 L 238.93 156.931 Z" stroke="url(#a)" fill="none" stroke-width="4"/>
    <path d="M 196.93 133.931 L 224.41 133.931 L 224.41 159.931 L 200.43 159.931 C 198.49 159.931 196.93 158.591 196.93 156.931 L 196.93 133.931 Z" fill="#e0f2fe"/>
    <path d="M 238.93 133.931 L 238.93 156.931 C 238.93 158.591 237.37 159.931 235.43 159.931 L 224.41 159.931 L 224.41 133.931 L 238.93 133.931 Z" fill="#bae6fd"/>
    <path d="M 196.93 126.931 C 196.93 125.271 198.49 123.931 200.43 123.931 L 235.43 123.931 C 237.37 123.931 238.93 125.271 238.93 126.931 L 238.93 133.931 L 196.93 133.931 L 196.93 126.931 Z" fill="#0369a1"/>
    <path d="M 203.23 128.601 C 203.23 130.271 201.422 131.315 199.975 130.48 C 199.304 130.092 198.89 129.376 198.89 128.601 C 198.89 126.926 200.703 125.88 202.153 126.717 C 202.826 127.106 203.24 127.824 203.24 128.601 L 203.23 128.601 Z M 209.18 128.601 C 209.18 130.271 207.372 131.315 205.925 130.48 C 205.254 130.092 204.84 129.376 204.84 128.601 C 204.84 126.93 206.649 125.886 208.095 126.721 C 208.767 127.109 209.18 127.825 209.18 128.601 Z M 215.08 128.601 C 215.08 130.271 213.272 131.315 211.825 130.48 C 211.154 130.092 210.74 129.376 210.74 128.601 C 210.74 126.93 212.549 125.886 213.995 126.721 C 214.667 127.109 215.08 127.825 215.08 128.601 Z" fill="#bae6fd"/>
    <path d="M 220.13 154.821 L 210.23 151.701 L 210.12 151.661 L 210.02 151.581 L 204.88 147.561 L 204.74 147.461 L 204.67 147.291 L 201.56 140.241 L 202.84 139.681 L 205.88 146.571 L 210.78 150.401 L 220.56 153.491 L 220.13 154.821 Z" fill="#38bdf8" stroke="#38bdf8"/>
    <path d="M 219.41 152.061 C 220.95 152.061 221.912 153.727 221.142 155.061 C 220.785 155.679 220.125 156.061 219.41 156.061 C 217.871 156.061 216.908 154.394 217.678 153.061 C 218.036 152.442 218.696 152.061 219.41 152.061 Z M 209.88 148.961 C 211.42 148.961 212.382 150.627 211.612 151.961 C 211.255 152.579 210.595 152.961 209.88 152.961 C 208.341 152.961 207.378 151.294 208.148 149.961 C 208.506 149.342 209.166 148.961 209.88 148.961 Z M 205.16 144.961 C 206.7 144.961 207.662 146.627 206.892 147.961 C 206.535 148.579 205.875 148.961 205.16 148.961 C 203.621 148.961 202.658 147.294 203.428 145.961 C 203.786 145.342 204.446 144.961 205.16 144.961 Z M 202.42 137.101 C 203.96 137.101 204.922 138.767 204.152 140.101 C 203.795 140.719 203.135 141.101 202.42 141.101 C 200.881 141.101 199.918 139.434 200.688 138.101 C 201.046 137.482 201.706 137.101 202.42 137.101 Z" fill="#0284c7"/>
    <path d="M 227.73 143.931 L 235.9 143.931 L 235.9 147.991 L 227.73 147.991 L 227.73 143.931 Z M 227.73 136.931 L 235.9 136.931 L 235.9 140.991 L 227.73 140.991 L 227.73 136.931 Z" fill="#0ea5e9"/>
  </g>
</svg>